<svg id="Capa_1" enable-background="new 0 0 512 512" height="512" viewBox="0 0 512 512" width="512" xmlns="http://www.w3.org/2000/svg"><g><g><path d="m331 75c0 15.41-12.71 27.92-30.37 35.81.24-1.9.37-3.84.37-5.81 0-24.81-20.19-45-45-45-8.28 0-15 6.72-15 15s6.72 15 15 15c8.27 0 15 6.73 15 15s-6.73 15-15 15c-36.22 0-75-18.08-75-45s38.78-45 75-45 75 18.08 75 45z"/></g><g><path d="m213.96 6.24c-35.01 10.71-62.96 34.79-62.96 68.76v51.8c-.85-1.95-1.62-3.96-2.31-6.04-6.15-18.4-23.3-30.77-42.68-30.77-5.141 0-10.361.927-15.01 2.57v-2.56c0-49.63 40.37-90 90-90 11.43 0 22.49 2.09 32.96 6.24z"/></g><g><path d="m421 90-.01 4.36c-5.334-2.175-11.139-3.31-17-3.31-19.39 0-36.54 12.36-42.68 30.77-.1.29-.2.59-.31.88v-47.7c0-33.97-27.95-58.05-62.96-68.76 10.47-4.15 21.53-6.24 32.96-6.24 49.63 0 90 40.37 90 90z"/></g><path d="m256 150c27.2 0 54.9-7.79 75-22.04v33.56c-19.14 11.74-41.95 16.82-57.89 19.01-8.66 1.19-17.25 2.43-25.7 3.87l-43.51-14.59c-8.64-2.9-16.26-6.27-22.9-10.16v-31.69c20.11 14.25 47.8 22.04 75 22.04z"/><path d="m406.402 121.241c-7.251-1.179-14.306 3.083-16.633 10.063-18.905 56.714-79.876 73.184-114.538 77.954-55.908 7.694-126.231 19.015-126.231 91.749 0 84.186 51.811 119.993 134.993 119.993 74.444 0 135.007-58.728 135.007-130.915v-154.038c0-7.357-5.335-13.628-12.598-14.806z"/><path d="m120.97 302c0 40.94 10.63 74.22 31.65 99.24-37.05-23.58-61.62-64.97-61.62-112.2v-154.04c0-7.36 5.34-13.63 12.6-14.81s14.3 3.09 16.63 10.07c13 38.99 43.62 57.76 74.13 67.99-5.18 2.04-10.25 4.34-15.17 6.92-38.09 19.97-58.22 53.45-58.22 96.83z"/><path d="m421 497c0 8.28-6.72 15-15 15h-30c-42.37 0-80.23-19.61-105-50.24v35.24c0 8.28-6.72 15-15 15s-15-6.72-15-15v-35.24c-24.77 30.63-62.63 50.24-105 50.24h-30c-8.28 0-15-6.72-15-15 0-31.21 10.65-59.98 28.49-82.87 29.29 24.52 65.93 37.88 104.63 37.88 75.334 0 59.634-.02 61.84-.02 40.52 0 77.67-14.31 106.42-38.02 17.92 22.92 28.62 51.75 28.62 83.03z"/></g></svg>